<?xml version="1.0" standalone="no"?>
<!DOCTYPE svg PUBLIC "-//W3C//DTD SVG 20010904//EN"
 "http://www.w3.org/TR/2001/REC-SVG-20010904/DTD/svg10.dtd">
<svg version="1.0" xmlns="http://www.w3.org/2000/svg"
 width="372.000000pt" height="372.000000pt" viewBox="0 0 372.000000 372.000000"
 preserveAspectRatio="xMidYMid meet">

<g transform="translate(0.000000,372.000000) scale(0.100000,-0.100000)"
fill="#ffffff" stroke="none">
<path d="M500 3349 c-58 -11 -90 -35 -115 -85 -18 -35 -20 -63 -23 -285 -5
-336 7 -390 94 -434 35 -18 63 -20 285 -23 336 -5 390 7 434 94 18 35 20 63
23 285 5 336 -7 390 -94 434 -36 18 -61 20 -299 22 -143 1 -280 -3 -305 -8z
m516 -131 c52 -28 59 -60 59 -278 0 -301 6 -295 -295 -295 -301 0 -295 -6
-295 295 0 249 8 270 105 291 19 4 116 7 215 5 145 -1 186 -5 211 -18z"/>
<path d="M642 3110 c-35 -15 -44 -54 -40 -187 4 -164 -2 -158 178 -158 183 0
175 -8 175 175 0 181 7 174 -163 177 -70 2 -137 -2 -150 -7z"/>
<path d="M1445 3348 c-2 -7 -6 -33 -7 -58 l-3 -45 -55 -5 -55 -5 0 -55 0 -55
55 -5 55 -5 0 -55 0 -55 -55 -5 -55 -5 -3 -43 c-5 -63 7 -72 97 -72 42 0 86
-3 98 -6 33 -9 43 -54 43 -191 0 -68 5 -133 10 -144 15 -27 85 -27 100 0 5 11
10 80 10 155 0 74 4 146 10 161 9 24 14 26 57 23 l48 -3 5 -55 5 -55 55 0 55
0 5 55 5 55 48 3 c43 3 48 1 57 -23 6 -15 10 -88 10 -164 0 -163 5 -174 70
-169 l45 3 5 55 5 55 45 3 c62 5 70 -10 70 -124 0 -104 4 -111 70 -116 l45 -3
5 -55 5 -55 55 0 55 0 0 55 0 55 -45 3 c-62 4 -70 18 -70 128 0 104 -4 111
-70 116 l-45 3 0 55 0 55 55 5 55 5 0 55 0 55 -55 5 -55 5 0 55 0 55 45 3 c27
2 50 9 58 19 17 24 17 302 -1 327 -10 13 -24 17 -57 14 l-45 -3 -5 -55 -5 -55
-55 -5 -55 -5 -5 -55 -5 -55 -55 -5 -55 -5 -5 -55 -5 -55 -55 -5 -55 -5 -5
-55 -5 -55 -45 -3 c-61 -5 -70 11 -70 118 0 103 8 118 70 122 l45 3 5 55 5 55
55 5 55 5 0 55 0 55 -55 0 -55 0 -3 -45 c-4 -62 -18 -70 -128 -70 -104 0 -111
-4 -116 -70 l-3 -45 -45 -3 c-62 -5 -70 10 -70 123 0 57 -4 95 -12 103 -16 16
-97 16 -103 0z m830 -288 l0 -55 -55 0 -55 0 -3 44 c-5 67 0 72 60 69 l53 -3
0 -55z m-600 -120 l0 -55 -55 0 -55 0 -3 44 c-5 67 0 72 60 69 l53 -3 0 -55z
m600 -120 l0 -55 -55 0 -55 0 -3 44 c-5 67 0 72 60 69 l53 -3 0 -55z"/>
<path d="M2660 3349 c-58 -11 -90 -35 -115 -85 -18 -35 -20 -63 -23 -285 -5
-336 7 -390 94 -434 35 -18 63 -20 285 -23 336 -5 390 7 434 94 18 35 20 63
23 285 5 336 -7 390 -94 434 -36 18 -61 20 -299 22 -143 1 -280 -3 -305 -8z
m516 -131 c52 -28 59 -60 59 -278 0 -301 6 -295 -295 -295 -301 0 -295 -6
-295 295 0 249 8 270 105 291 19 4 116 7 215 5 145 -1 186 -5 211 -18z"/>
<path d="M2802 3110 c-35 -15 -44 -54 -40 -187 4 -164 -2 -158 178 -158 120 0
142 2 157 18 16 15 18 37 18 157 0 181 7 174 -163 177 -70 2 -137 -2 -150 -7z"/>
<path d="M1332 2748 c-8 -8 -12 -47 -12 -108 0 -108 6 -120 60 -120 54 0 60
12 60 120 0 108 -6 120 -60 120 -20 0 -41 -5 -48 -12z"/>
<path d="M1810 2621 c-15 -29 -13 -303 3 -324 7 -10 30 -17 57 -19 l45 -3 3
-45 c5 -62 -10 -70 -124 -70 -104 0 -111 -4 -116 -70 l-3 -45 -45 -3 c-61 -5
-70 11 -70 118 0 103 8 118 70 122 l45 3 3 48 c3 43 1 48 -23 57 -34 13 -515
13 -549 0 -21 -8 -25 -16 -28 -57 l-3 -48 -55 0 -55 0 -3 48 c-3 41 -7 49 -28
57 -33 13 -515 13 -548 0 -22 -8 -26 -16 -26 -48 0 -56 12 -62 115 -62 109 0
123 -8 127 -70 l3 -45 55 0 55 0 5 55 5 55 45 3 c61 5 70 -11 70 -118 0 -103
-8 -118 -70 -122 l-45 -3 0 -55 0 -55 55 -5 55 -5 0 -55 0 -55 -55 -5 -55 -5
-5 -55 -5 -55 -55 -5 -55 -5 0 -55 0 -55 55 -5 55 -5 0 -55 0 -55 -55 -5 -55
-5 0 -55 0 -55 55 0 55 0 5 55 5 55 55 0 55 0 5 -55 5 -55 55 0 55 0 5 55 5
55 55 0 55 0 5 -55 5 -55 55 0 55 0 0 55 0 55 -55 5 -55 5 -3 45 c-4 60 11 70
109 70 61 0 82 -4 100 -19 24 -19 24 -23 29 -230 3 -135 9 -214 16 -221 6 -6
31 -10 55 -8 44 3 44 3 47 45 5 67 9 68 242 68 233 0 237 -1 242 -68 l3 -42
55 0 55 0 0 55 0 55 -55 5 -55 5 -3 45 c-5 61 11 70 118 70 103 0 118 -8 122
-70 l3 -45 45 -3 c62 -4 70 -19 70 -122 0 -103 -8 -118 -70 -122 l-45 -3 -3
-43 c-5 -65 6 -72 110 -72 110 0 128 -8 128 -58 0 -56 11 -62 121 -62 110 0
116 4 121 70 l3 45 55 0 55 0 5 -55 5 -55 55 -5 55 -5 3 -48 c3 -43 1 -48 -23
-57 -15 -6 -88 -10 -164 -10 -94 0 -142 -4 -154 -12 -10 -8 -17 -31 -19 -58
l-3 -45 -55 0 -55 0 -5 55 -5 55 -55 5 -55 5 -3 45 c-5 66 -12 70 -113 70
-120 0 -129 9 -129 124 0 111 -5 116 -116 116 -106 0 -124 8 -124 58 0 56 -11
62 -120 62 -109 0 -120 -6 -120 -62 0 -49 -18 -58 -113 -58 -59 0 -80 -4 -98
-19 l-24 -19 0 -262 0 -262 24 -19 c19 -15 39 -19 106 -19 95 0 102 5 107 70
l3 45 55 0 55 0 3 -48 c3 -41 7 -49 28 -57 33 -13 395 -13 428 0 22 8 26 16
26 49 0 53 17 61 122 61 101 0 116 -9 120 -70 l3 -45 55 0 55 0 5 55 5 55 55
0 55 0 3 -47 c3 -42 6 -47 34 -57 42 -15 535 -15 593 0 24 6 54 22 67 36 22
24 23 30 23 208 0 228 2 225 -120 225 -98 0 -113 9 -117 70 l-3 45 -55 5 -55
5 -3 48 c-3 43 -1 48 23 57 15 6 87 10 161 10 75 0 144 5 155 10 27 15 27 85
0 100 -11 5 -80 10 -155 10 -74 0 -146 4 -161 10 -24 9 -26 14 -23 57 l3 48
55 5 55 5 0 55 0 55 -55 0 -55 0 -5 -55 -5 -55 -45 -3 c-61 -5 -70 11 -70 116
0 104 9 122 58 122 55 0 62 12 62 113 0 110 8 127 60 127 52 0 60 -17 60 -128
0 -102 4 -109 70 -114 l45 -3 5 -55 5 -55 43 -3 c66 -5 72 5 72 118 0 111 -4
117 -70 122 l-45 3 0 55 0 55 45 3 c27 2 50 9 58 19 15 21 17 295 2 324 -8 14
-21 19 -50 19 -52 0 -60 17 -60 127 0 56 -4 93 -12 101 -20 20 -86 15 -98 -7
-15 -29 -13 -303 3 -324 7 -10 30 -17 57 -19 l45 -3 3 -45 c5 -62 -10 -70
-124 -70 -104 0 -111 -4 -116 -70 l-3 -45 -55 0 -55 0 -3 45 c-2 25 -8 50 -13
55 -6 6 -100 12 -220 15 -207 5 -211 5 -230 29 -15 18 -19 39 -19 101 0 106
-5 110 -124 110 -108 0 -119 -7 -114 -72 l3 -43 55 -5 55 -5 5 -55 5 -55 55
-5 55 -5 0 -55 0 -55 -55 -5 -55 -5 -5 -55 -5 -55 -45 -3 c-61 -5 -70 11 -70
115 0 121 -3 123 -174 123 -74 0 -146 4 -161 10 -24 9 -26 14 -23 57 l3 48 55
5 55 5 5 55 5 55 55 5 55 5 5 55 5 55 55 5 55 5 3 43 c5 65 -6 72 -109 72
-121 0 -129 8 -129 128 0 55 -4 92 -12 100 -20 20 -86 15 -98 -7z m-412 -352
c36 -12 42 -30 42 -125 0 -90 -11 -106 -70 -102 l-45 3 -3 45 c-5 66 -11 70
-122 70 -113 0 -123 -6 -118 -72 l3 -43 55 -5 55 -5 3 -45 c5 -66 12 -70 116
-70 110 0 124 -8 128 -70 l3 -45 55 0 55 0 5 55 5 55 55 0 55 0 5 -55 5 -55
55 -5 55 -5 5 -55 5 -55 55 0 55 0 5 55 5 55 48 3 c43 3 48 1 57 -23 13 -35
13 -254 -1 -293 -12 -36 -30 -42 -125 -42 -86 0 -102 11 -106 70 l-3 45 -43 3
c-65 5 -72 -6 -72 -112 0 -114 -8 -129 -70 -124 l-45 3 -5 55 -5 55 -55 5 -55
5 -5 55 -5 55 -55 5 -55 5 -3 45 c-2 27 -9 50 -19 58 -12 8 -61 12 -160 12
-181 0 -183 -1 -183 -123 0 -104 -9 -120 -70 -115 l-45 3 -5 55 -5 55 -55 5
-55 5 -3 45 c-5 61 10 70 119 70 116 0 119 3 119 124 0 107 -4 113 -70 118
l-45 3 0 55 0 55 55 5 55 5 5 55 5 55 55 5 55 5 5 49 c4 37 10 51 25 57 30 12
258 10 293 -2z m1226 -482 c13 -10 17 -24 14 -57 l-3 -45 -55 -5 -55 -5 0 -55
0 -55 55 -5 55 -5 0 -55 0 -55 -55 0 -55 0 -5 55 -5 55 -55 0 -55 0 -5 -55 -5
-55 -55 0 -55 0 0 55 0 55 45 3 c66 5 70 12 70 113 0 120 9 129 123 129 52 0
90 -5 101 -13z m251 -47 l0 -55 -55 0 -55 0 -3 44 c-5 67 0 72 60 69 l53 -3 0
-55z m-167 -431 c41 -14 52 -50 52 -169 0 -167 -13 -180 -180 -180 -167 0
-180 13 -180 180 0 115 11 155 48 169 37 13 222 13 260 0z m287 -169 l0 -55
-55 0 -55 0 -3 44 c-5 67 0 72 60 69 l53 -3 0 -55z m0 -240 l0 -55 -55 0 -55
0 -3 44 c-5 67 0 72 60 69 l53 -3 0 -55z m-1437 -110 c5 -66 11 -70 122 -70
111 0 117 4 122 70 l3 45 45 3 c61 5 70 -10 70 -119 0 -114 4 -119 116 -119
107 0 124 -8 124 -60 0 -52 -17 -60 -122 -60 -101 0 -116 9 -120 70 l-3 45
-55 0 -55 0 -5 -55 -5 -55 -55 0 -55 0 -5 55 -5 55 -55 5 -55 5 -5 55 -5 55
-55 5 -55 5 -3 44 c-5 67 0 72 60 69 l53 -3 3 -45z m1672 -89 c5 -11 10 -56
10 -100 0 -111 -10 -121 -123 -121 -104 0 -120 9 -115 70 l3 45 55 5 55 5 3
45 c4 67 7 70 56 70 35 0 48 -5 56 -19z"/>
<path d="M964 2027 c-3 -8 -4 -34 -2 -58 l3 -44 55 -5 55 -5 5 -55 5 -55 55 0
55 0 0 55 0 55 -55 5 -55 5 -5 55 -5 55 -53 3 c-38 2 -54 -1 -58 -11z"/>
<path d="M1565 1788 c-2 -7 -6 -33 -7 -58 l-3 -45 -55 -5 -55 -5 -3 -43 c-5
-65 6 -72 114 -72 121 0 124 3 124 124 0 58 -4 96 -12 104 -16 16 -97 16 -103
0z"/>
<path d="M2524 1187 c-3 -8 -4 -34 -2 -58 l3 -44 55 0 55 0 0 55 0 55 -53 3
c-38 2 -54 -1 -58 -11z"/>
<path d="M2652 2388 c-8 -8 -12 -46 -12 -103 0 -109 -8 -123 -70 -127 l-45 -3
0 -55 0 -55 55 0 55 0 5 55 5 55 55 0 55 0 3 -45 c5 -66 11 -70 121 -70 109 0
121 6 121 60 0 53 -13 60 -112 60 -75 0 -91 3 -108 20 -17 17 -20 33 -20 108
0 99 -7 112 -60 112 -20 0 -41 -5 -48 -12z"/>
<path d="M2884 2387 c-3 -8 -4 -34 -2 -58 l3 -44 55 0 55 0 0 55 0 55 -53 3
c-38 2 -54 -1 -58 -11z"/>
<path d="M372 2148 c-17 -17 -17 -202 1 -216 7 -6 33 -12 57 -14 l45 -3 0 -55
0 -55 -48 -3 c-41 -3 -49 -7 -57 -28 -13 -33 -13 -395 0 -428 8 -22 16 -26 49
-26 22 0 43 6 48 13 4 6 10 107 13 223 5 232 9 244 64 244 50 0 56 14 56 121
0 110 -4 116 -70 121 l-45 3 -5 55 -5 55 -45 3 c-26 2 -50 -2 -58 -10z"/>
<path d="M500 1189 c-58 -11 -90 -35 -115 -85 -18 -35 -20 -63 -23 -285 -5
-336 7 -390 94 -434 35 -18 63 -20 285 -23 336 -5 390 7 434 94 18 35 20 63
23 285 5 336 -7 390 -94 434 -36 18 -61 20 -299 22 -143 1 -280 -3 -305 -8z
m516 -131 c52 -28 59 -60 59 -278 0 -301 6 -295 -295 -295 -301 0 -295 -6
-295 295 0 249 8 270 105 291 19 4 116 7 215 5 145 -1 186 -5 211 -18z"/>
<path d="M642 950 c-35 -15 -44 -54 -40 -187 4 -164 -2 -158 178 -158 120 0
142 2 157 18 16 15 18 37 18 157 0 181 7 174 -163 177 -70 2 -137 -2 -150 -7z"/>
</g>
</svg>
